<?xml version="1.0" encoding="utf-8" ?><svg xmlns="http://www.w3.org/2000/svg" xmlns:xlink="http://www.w3.org/1999/xlink" width="1024" height="1024" viewBox="0 0 1024 1024"><path fill="white" d="M0 0L1024 0L1024 1024L0 1024L0 0Z"/><defs><linearGradient id="gradient_0" gradientUnits="userSpaceOnUse" x1="365.3999" y1="109.2047" x2="641.85022" y2="868.30212"><stop offset="0" stop-color="#093490"/><stop offset="1" stop-color="#397EFF"/></linearGradient></defs><path fill="url(#gradient_0)" d="M597.585 886.06L319.097 886.03C270.859 885.824 225.432 870.697 190.972 835.849C167.73 812.548 151.625 783.094 144.552 750.953C138.941 725.665 140.036 698.251 140.066 672.332L140.095 595.561L139.979 316.066C140.243 266.571 155.976 223.442 191.621 188.285C214.042 166.204 242.14 150.763 272.799 143.671C299.959 137.487 327.902 138.772 355.725 138.703L445.787 138.742L709.088 138.829C757.715 139.233 800.735 155.65 835.069 190.498C864.802 220.677 881.667 259.565 884.199 301.662C885.282 319.671 884.884 339.971 884.907 358.205L884.895 449.733C885.602 506.547 884.926 564.821 884.903 621.7L884.9 680.688C884.905 705.889 885.713 729.489 879.563 754.131C872.192 783.662 857.34 811.277 836.276 833.205C801.806 869.09 757.11 885.819 707.785 886.068C671.198 886.253 634.301 885.941 597.585 886.06Z"/><path fill="#418BF8" d="M610.921 388.149C620.941 379.994 628.106 386.01 627.378 397.88C627.745 400.138 627.359 400.297 628.662 401.506C630.962 401.547 631.328 400.489 632.887 399.625C637.229 395.708 639.004 395.743 644.583 396.57C646.561 395.991 648.224 398.249 649.024 399.844C650.592 402.973 649.757 407.858 650.192 411.339C650.227 411.649 653.109 412.459 653.435 412.535C655.518 413.023 657.489 414.277 659.337 415.339C659.939 417.152 659.402 416.75 660.57 417.407C663.257 417.329 665.413 416.957 667.578 418.664C669.398 420.016 669.89 420.491 671.118 422.394C671.23 423.668 671.241 424.379 671.222 425.661C672.088 426.406 676.346 427.948 677.848 428.677C681.538 430.446 685.101 432.468 688.511 434.729C698.612 441.446 707.719 450.405 718.426 456.752C723.78 459.925 729.24 465.485 734.965 468.517C749.288 476.911 765.406 483.793 780.589 490.651C784.574 492.451 793.894 497.339 796.992 498.013C798.144 502.098 805.497 501.1 807.028 506.272C808.87 507.546 809.364 508.13 810.711 509.928L810.292 510.786C813.484 510.808 822.32 510.472 824.6 512.22L824.202 512.499L824.057 513.722C827.93 513.633 831.933 513.485 835.793 513.547C830.845 514.917 822.933 514.427 819.541 515.432C812.689 517.464 810.047 532.123 807.45 537.974C806.25 540.677 803.901 543.759 802.681 546.536C799.996 552.261 793.526 556.176 791.893 562.405C791.722 563.057 789.016 567.567 788.545 568.112C785.831 571.253 787.154 573.092 786.033 576.616C785.507 578.204 785.61 577.578 785.372 579.305C792.582 585.614 797.764 583.438 805.9 583.863C810.568 584.457 814.366 585.016 819.084 584.468C824.894 583.794 830.94 581.84 836.78 581.89L837.143 580.982L837.895 581.325C840.151 579.991 841.721 579.531 844.166 578.659L844.625 579.629C845.363 578.958 845.576 578.543 846.127 577.707C848.944 578.898 849.77 579.925 852.764 580.117C853.536 578.306 854.132 577.215 855.095 575.486C856.36 575.351 860.563 576.19 862.071 576.442C862.315 575.443 862.144 575.956 862.612 574.913C866.346 574.948 873.841 570.413 877.782 569.092C878.104 568.985 879.447 570.57 880.626 570.338C880.023 569.098 880.019 569.712 880.439 568.466C881.64 567.591 881.837 567.581 883.318 567.442L883.296 567.435L883.782 568.924C884.342 541.953 884.539 514.976 884.372 488C884.388 477.589 883.476 459.388 884.895 449.733C885.602 506.547 884.926 564.821 884.903 621.7L884.9 680.688C884.905 705.889 885.713 729.489 879.563 754.131C872.192 783.662 857.34 811.277 836.276 833.205C801.806 869.09 757.11 885.819 707.785 886.068C671.198 886.253 634.301 885.941 597.585 886.06C596.318 884.983 595.974 884.922 595.55 883.328L595.927 882.878L597.571 883.96L598.358 882.45L597.539 881.464C597.173 879.975 597.134 880.077 597.531 878.608C598.311 879.148 598.881 879.52 599.7 879.997C600.181 877.617 600.502 876.112 601.255 873.813L601.765 873.571L602.658 875.801L603.177 875.487C604.751 871.774 605.461 868.817 605.875 864.843L605.943 864.143C606.494 864.462 606.802 864.765 607.245 865.213C607.69 863.883 606.91 862.434 607.995 860.57C608.701 860.955 609.41 861.333 610.123 861.704L610.814 861.336L610.663 860.48C605.193 858.357 608.183 854.476 607.877 850.841C607.672 848.409 607.729 844.923 607.301 842.695C605.759 842.007 606.17 842.77 604.865 842.064C603.895 838.729 601.134 834.908 599.816 831.44C596.326 822.255 594.974 813.896 593.883 804.227C595.793 804.079 595.016 804.428 596.393 803.414C597.639 799.317 594.728 797.645 594.642 796.333C594.367 792.177 596.649 779.796 596.942 775.062C597.018 773.833 602.326 772 602.782 770.865C604.834 765.754 606.995 760.635 609.332 755.72C609.905 754.515 608.651 751.939 609.479 750.018C613.677 748.773 615.719 742.755 619.104 739.819C619.331 739.622 619.529 735.41 619.553 734.84C621.857 733.342 624.393 731.681 626.283 729.672C628.077 727.766 639.087 712.821 639.627 712.611C640.414 713.682 640.706 714.528 641.221 715.735C643.4 713.011 644.388 709.641 646.349 706.659C647.411 705.043 650.621 703.504 651.279 702.425C655.337 695.778 653.885 690.52 652.853 683.807C652.627 685.118 650.317 690.604 649.685 692.311L649.032 692.368C648.152 690.531 649.35 687.32 648.619 685.972C643.06 675.714 640.075 680.003 636.198 678.395C634.899 673.524 614.541 666.008 608.955 663.424C582.634 651.246 568.168 628.675 550.054 607.373C544.328 600.64 536.749 595.172 531.438 588.731C529.209 590.329 530.671 596.558 528.954 600.284C528.901 588.473 530.666 568.713 531.404 556.27L533.101 557.249C533.583 559.133 533.122 558.386 534.333 559.687C537.578 558.97 537.695 554.096 537.66 551.299C537.303 523.398 538.479 495.228 537.204 467.419C537.144 466.11 533.834 464.926 532.839 464.592L530.998 464.615C530.487 457.854 530.093 449.76 530.026 443.004C531.834 445.652 530.564 451.521 531.512 456.12C534.672 455.725 538.4 448.892 542.06 446.57L542.712 446.947C543.066 440.531 544.107 435.814 550.923 435.094C551.364 435.048 555.018 434.395 554.947 434.469C557.479 431.85 562.377 426.734 564.675 424.277C566.386 422.447 565.046 417.161 567.999 414.99C573.574 410.89 576.21 413.334 582.02 414.204C583.992 414.499 585.421 412.651 586.755 411.262C586.705 404.557 585.288 394.642 593.848 393.363L594.324 393.339C600.695 391.209 605.547 393.884 606.05 400.739L606.087 401.332L606.62 401.171C610.152 397.38 608.334 392.275 610.156 388.502L610.921 388.149Z"/><path fill="white" d="M610.921 388.149C620.941 379.994 628.106 386.01 627.378 397.88C627.745 400.138 627.359 400.297 628.662 401.506C630.962 401.547 631.328 400.489 632.887 399.625C631.287 404.784 631.914 427.913 631.924 434.561L631.97 485.172L631.891 574.033C631.929 588.34 631.9 602.708 632.183 617.014C632.248 620.283 632.471 622.816 634.015 625.745C631.179 625.02 631.352 622.259 631.368 620.028C631.396 616.097 631.274 575.564 630.011 574.776L629.11 575.17L628.312 574.089L628.61 574.58C626.221 578.176 630.284 621.912 627.027 631.175C626.604 633.164 626.09 634.833 624.593 636.267C622.705 638.072 620.14 638.991 617.536 638.797C614.578 638.57 612.858 637.161 610.97 635.076C610.294 632.607 609.991 629.375 609.98 626.802C609.907 609.611 609.888 592.392 609.849 575.203L609.877 458.336L609.95 415.196C609.964 408.991 609.541 393.603 610.921 388.149Z"/><path fill="#67AAFA" d="M627.378 397.88C627.745 400.138 627.359 400.297 628.662 401.506C630.962 401.547 631.328 400.489 632.887 399.625C631.287 404.784 631.914 427.913 631.924 434.561L631.97 485.172L631.891 574.033C631.929 588.34 631.9 602.708 632.183 617.014C632.248 620.283 632.471 622.816 634.015 625.745C631.179 625.02 631.352 622.259 631.368 620.028C631.396 616.097 631.274 575.564 630.011 574.776L629.11 575.17L628.312 574.089L628.61 574.58C626.221 578.176 630.284 621.912 627.027 631.175C626.694 616.899 627.146 600.357 627.213 585.929L627.376 504.453L627.266 436.503C627.235 424.229 626.889 409.965 627.378 397.88Z"/><path fill="white" d="M644.583 396.57C646.561 395.991 648.224 398.249 649.024 399.844C650.592 402.973 649.757 407.858 650.192 411.339C650.227 411.649 653.109 412.459 653.435 412.535C655.518 413.023 657.489 414.277 659.337 415.339C659.939 417.152 659.402 416.75 660.57 417.407C663.257 417.329 665.413 416.957 667.578 418.664L666.848 419.096C663.358 417.954 660.611 417.476 657.15 419.044C653.168 420.849 653.392 425.931 653.342 429.668C653.231 437.951 653.186 446.294 653.135 454.583L653.078 533.564C653.081 544.436 653.633 561.8 652.946 572.268C650.044 560.957 653.549 538.639 652.384 526.369C652.203 524.458 650.579 521.817 650.123 519.163C649.619 526.572 650.011 539.01 649.993 546.802L649.587 591.763C649.558 596.874 649.735 613.785 649.074 617.731C648.816 627.452 642.161 629.956 634.015 625.745C632.471 622.816 632.248 620.283 632.183 617.014C631.9 602.708 631.929 588.34 631.891 574.033L631.97 485.172L631.924 434.561C631.914 427.913 631.287 404.784 632.887 399.625C637.229 395.708 639.004 395.743 644.583 396.57Z"/><defs><linearGradient id="gradient_1" gradientUnits="userSpaceOnUse" x1="670.81531" y1="462.60135" x2="638.46301" y2="470.19116"><stop offset="0" stop-color="#3E84E5"/><stop offset="1" stop-color="#79BCFF"/></linearGradient></defs><path fill="url(#gradient_1)" d="M644.583 396.57C646.561 395.991 648.224 398.249 649.024 399.844C650.592 402.973 649.757 407.858 650.192 411.339C650.227 411.649 653.109 412.459 653.435 412.535C655.518 413.023 657.489 414.277 659.337 415.339C659.939 417.152 659.402 416.75 660.57 417.407C663.257 417.329 665.413 416.957 667.578 418.664L666.848 419.096C663.358 417.954 660.611 417.476 657.15 419.044C653.168 420.849 653.392 425.931 653.342 429.668C653.231 437.951 653.186 446.294 653.135 454.583L653.078 533.564C653.081 544.436 653.633 561.8 652.946 572.268C650.044 560.957 653.549 538.639 652.384 526.369C652.203 524.458 650.579 521.817 650.123 519.163C649.619 526.572 650.011 539.01 649.993 546.802L649.587 591.763C649.558 596.874 649.735 613.785 649.074 617.731C648.637 612.611 648.94 603.196 648.973 597.903L649.168 562.981L649.087 458.739C649.061 441.009 649.203 423.084 649.01 405.349C648.96 400.714 647.894 399.529 644.583 396.57Z"/><path fill="white" d="M594.324 393.339C595.101 393.337 595.879 393.35 596.656 393.377C602.187 393.6 605.084 396.372 605.221 401.985C605.581 416.759 605.519 431.562 605.554 446.342L605.595 531.175L605.521 592.08C605.495 602.371 605.62 612.731 605.168 623.001C604.959 627.756 599.807 630.304 595.516 629.495C588.939 628.256 587.964 623.407 587.936 617.534C587.849 599.886 587.882 582.245 587.908 564.601L588.038 463.352L587.938 421.691C587.909 414.884 587.506 406.215 588.398 399.52C588.786 396.613 591.555 394.854 593.848 393.363L594.324 393.339Z"/><path fill="white" d="M652.946 572.268C653.633 561.8 653.081 544.436 653.078 533.564L653.135 454.583C653.186 446.294 653.231 437.951 653.342 429.668C653.392 425.931 653.168 420.849 657.15 419.044C660.611 417.476 663.358 417.954 666.848 419.096C670.947 422.958 670.75 424.972 670.83 430.959C670.976 441.758 670.821 452.675 670.861 463.492L671.098 530.416L670.978 573.749C670.938 582.117 671.136 592.719 670.455 600.922C667.164 606.031 662.752 608.975 657.067 605.29C651.934 601.963 652.846 593.493 652.83 588.203C652.814 582.861 652.906 577.571 652.946 572.268Z"/><path fill="white" d="M824.057 513.722C820.538 514.534 811.915 515.186 808.583 513.459L808.486 512.723C811.448 510.989 820.723 511.96 824.202 512.499L824.057 513.722Z"/><path fill="white" d="M573.631 413.609C579.489 413.264 583.651 415.44 583.773 421.656C584.111 438.929 584.036 456.219 584.062 473.498L584.056 557.45C584.038 571.217 584.086 584.985 584.003 598.75C583.968 604.692 582.893 606.462 577.23 608.214C575.521 608.177 573.71 608.205 572.077 607.646C569.779 606.86 567.888 605.26 566.955 602.981C564.863 597.872 565.631 440.664 566.192 424.597C566.264 422.524 566.191 420.013 567.091 418.118C568.287 415.601 571.188 414.476 573.631 413.609Z"/><path fill="white" d="M551.071 435.566C562.592 434.899 561.69 442.601 561.703 451.293C561.723 465.496 561.676 479.716 561.649 493.917L561.518 547.55C561.481 557.454 561.51 567.381 561.251 577.28C561.092 583.357 559.211 585.095 553.673 586.396C552.366 586.361 551.03 586.271 549.757 585.948C547.856 585.466 545.946 584.231 544.991 582.476C544.055 580.756 544.176 578.329 544.108 576.406C543.616 562.536 543.041 444.993 544.465 441.326C545.705 438.131 548.075 436.872 551.071 435.566Z"/><path fill="white" d="M683.269 443.097C686.39 443.331 691.679 444.594 692.296 448.484C692.969 452.726 692.774 458.02 692.776 462.396C692.791 499.193 692.862 535.998 692.823 572.793C692.815 579.211 691.989 582.216 685.578 584.339C681.829 584.447 675.925 582.219 675.608 578.78C674.512 566.859 674.944 549.887 674.935 538.112L674.934 484.199C674.944 473.501 674.829 462.775 675.265 452.089C675.494 446.463 678.041 444.294 683.269 443.097Z"/><path fill="white" d="M702.972 464.037C704.547 463.876 706.115 463.697 707.682 464.01C710.091 464.492 712.412 465.814 713.654 468.003C714.793 470.01 714.82 473.256 714.928 475.558C715.335 484.323 714.918 554.392 713.736 557.69C712.916 559.979 711.249 560.96 709.167 561.972C707.09 562.159 704.923 562.265 702.882 561.745C701.026 561.271 699.198 560.068 698.282 558.347C697.249 556.408 697.233 553.416 697.131 551.228C696.674 541.467 696.08 473.032 697.832 468.406C698.692 466.138 700.95 465.049 702.972 464.037Z"/><path fill="white" d="M726.186 482.54C727.639 482.542 729.016 482.588 730.422 483C732.313 483.554 734.119 484.582 734.982 486.438C737.089 490.972 737.316 534.313 735.554 538.439C734.382 541.182 732.369 542.105 729.705 543.111C728.127 543.066 726.566 543.016 725.032 542.606C723.182 542.111 721.352 541.206 720.446 539.431C718.608 535.834 718.338 490.581 720.126 486.763C721.272 484.316 723.787 483.334 726.186 482.54Z"/><path fill="white" d="M747.366 493.561C748.524 493.422 750.068 493.403 751.264 493.364C763.623 492.956 758.32 519.223 758.557 527.001C758.608 528.682 754.685 531.088 753.393 531.852C740.996 533.583 741.464 524.938 741.851 515.33C742.184 507.043 739.563 498.036 747.366 493.561Z"/><path fill="white" d="M770.998 500.509C782.366 500.011 782.888 510.567 780.895 519.501C780.194 522.645 778.223 523.914 775.48 525.335C763.565 526.257 763.403 515.403 765.551 506.452C766.314 503.274 768.238 501.977 770.998 500.509Z"/><path fill="white" d="M789.262 509.034C793.565 508.902 806.493 507.684 806.122 514.043C804.936 516.075 804.898 516.158 803.033 517.527C798.65 518.183 790.545 519.156 787.127 515.892C785.581 512.729 786.586 510.886 789.262 509.034Z"/><path fill="white" d="M511.087 842.27C510.61 828.45 510.983 812.337 510.961 798.389L510.619 717.951L510.294 395.003L510.848 252.78L510.876 203.741C510.89 197.548 510.575 183.931 511.299 178.437L511.608 179.168L511.139 179.626L511.727 179.863C513.773 199.706 515.111 220.88 516.699 240.855C520.002 280.256 522.806 319.697 525.111 359.169C526.717 386.565 527.763 415.796 530.026 443.004C530.093 449.76 530.487 457.854 530.998 464.615L532.839 464.592C533.834 464.926 537.144 466.11 537.204 467.419C538.479 495.228 537.303 523.398 537.66 551.299C537.695 554.096 537.578 558.97 534.333 559.687C533.122 558.386 533.583 559.133 533.101 557.249L531.404 556.27C530.666 568.713 528.901 588.473 528.954 600.284C527.574 609.797 527.052 630.202 526.362 640.695L520.494 728.843L514.811 803.863C514.122 812.536 511.991 830.543 512.035 838.497C511.751 839.652 511.43 841.166 511.087 842.27Z"/><path fill="#B1CDF4" d="M531.404 556.27C531.345 550.561 532.572 534.85 533.452 529.182C533.868 529.617 533.483 542.338 533.447 543.916L533.101 557.249L531.404 556.27Z"/><path fill="#67AAFA" d="M530.998 464.615L532.839 464.592C532.517 468.289 532.804 471.105 533.066 474.799C533.027 476.603 533.08 478.371 532.657 480.122L532.045 479.577C532.149 476.12 531.257 468.443 530.998 464.615Z"/><path fill="#DAE5F5" d="M533.066 474.799C533.946 479.617 533.436 485.034 533.05 489.901C532.616 487.334 531.908 482.118 532.045 479.577L532.657 480.122C533.08 478.371 533.027 476.603 533.066 474.799Z"/><path fill="#67AAFA" d="M824.6 512.22C829.371 512.429 834.078 512.566 838.821 513.155L838.972 513.424L835.793 513.547C831.933 513.485 827.93 513.633 824.057 513.722L824.202 512.499L824.6 512.22Z"/><path fill="#B1CDF4" d="M512.035 838.497C512.018 841.365 512.167 842.736 511.331 845.508C510.93 843.916 510.986 843.933 511.087 842.27C511.43 841.166 511.751 839.652 512.035 838.497Z"/><defs><linearGradient id="gradient_2" gradientUnits="userSpaceOnUse" x1="290.67197" y1="620.0058" x2="551.13269" y2="471.56332"><stop offset="0" stop-color="#458CFB"/><stop offset="1" stop-color="#68AAFC"/></linearGradient></defs><path fill="url(#gradient_2)" d="M425.432 283.354C425.368 278.597 424.819 274.747 428.429 271.016C430.256 269.128 432.788 268.089 435.415 268.15C438.157 268.2 440.765 269.348 442.652 271.338C446.434 275.386 445.575 283.386 445.512 288.767C446.344 291.812 445.383 298.242 446.74 299.542C448.977 299.75 450.915 299.387 452.72 297.937C453.201 295.5 453.5 292.608 454.839 290.637C455.517 290.596 455.286 290.473 455.617 290.746C457.991 288.565 460.368 286.654 463.843 286.803C477.627 287.392 473.912 305.399 474.069 315.366L474.146 316.014C475.416 327.417 474.903 337.513 475.145 348.691L475.625 348.981C479.253 344.985 479.49 339.669 483.18 338.789C487.391 337.09 489.919 336.351 494.604 337.933C496.23 338.482 498.893 341.244 499.034 342.504C500.05 351.558 499.72 363.688 499.771 372.71L499.991 448.193L500.01 596.852C500.022 622.66 500.121 648.471 499.989 674.277C499.952 681.544 499.449 685.876 491.572 688.188C492.57 688.474 492.593 688.491 493.493 689.013C493.221 699.914 481.82 726.862 478.473 738.307C476.75 744.197 465.096 761.396 460.619 766.652C456.673 767.605 457.673 769.61 454.929 771.82C454.934 771.817 451.596 773.372 451.187 773.583L451.103 775.808C446.999 779.861 435.346 780.674 433.873 781.826C434.669 782.471 434.332 782.07 434.842 783.064C431.577 783.635 417.133 783.464 413.699 782.168C410.79 781.385 407.014 778.739 404.165 778.269C383.602 774.877 370.465 755.502 359.475 739.505C358.525 738.122 355.013 733.213 354.581 731.645C355.447 731.052 355.185 731.451 355.412 730.478C353.313 728.822 350.635 721.77 348.984 718.633C350.143 718.75 349.789 718.953 350.411 718.456C346.925 711.607 344.898 704.6 343.888 697.001C343.364 689.42 340.309 683.291 338.421 675.989C332.667 653.739 324.134 632.435 319.177 609.781C317.027 605.303 315.577 596.59 313.344 592.615C307.36 581.963 303.124 568.305 297.557 557.905L297.318 557.467C295.86 557.839 293.914 557.308 292.446 556.845C285.582 554.677 286.612 544.294 285.708 542.579L284.24 542.257C283.397 539.708 280.604 536.476 278.672 534.638C275.962 537.648 273.566 538.378 269.35 538.414C267.012 538.689 261.501 535.621 261.054 533.509C259.838 527.772 257.967 497.055 262.051 494.423C264.285 492.537 264.96 492.129 267.543 490.733L267.823 489.841C270.127 489.809 272.057 489.643 274.343 490.297C278.954 491.615 279.343 496.855 281.518 499.083C290.043 497.936 284.727 483.572 287.074 477.42C290.009 469.727 295.625 469.451 302.589 471.565C305.283 473.266 305.153 474.573 306.935 475.098C308.514 474.153 311.761 471.388 312.837 471.018L313.085 472.048C315.213 468.225 311.818 452.26 314.03 446.739C314.647 441.226 314.976 440.845 318.998 437.099C323.805 432.08 328.697 436.906 333.21 438.659C335.851 439.685 340.064 432.986 340.129 431.301C340.495 421.76 340.005 410.242 341.344 400.892L341.431 400.312C341.441 389.741 338.407 379.453 349.448 374.508C350.031 374.413 350.616 374.327 351.201 374.249C355.731 373.63 361.635 376.759 362.16 381.23C369.725 377.489 367.435 366.745 367.946 360.291C368.224 356.774 367.87 338.504 368.943 336.646C369.242 325.499 365.454 314.365 378.958 311.347L384.156 312.55C392.939 313.93 388.352 328.194 390.74 331.991C392.829 331.258 393.451 329.537 395.363 327.589L396.264 328.069C396.81 326.419 396.2 310.716 396.415 307.273C396.64 303.67 397.13 297.235 397.331 293.561C397.654 282.6 405.958 279.071 414.685 285.005C420.348 288.28 416.97 294.707 418.13 299.033L418.896 299.449C420.782 298.869 422.484 298.183 424.313 297.469C425.65 295.432 424.67 286.947 425.432 283.354Z"/><path fill="white" d="M425.432 283.354C425.368 278.597 424.819 274.747 428.429 271.016C430.256 269.128 432.788 268.089 435.415 268.15C438.157 268.2 440.765 269.348 442.652 271.338C446.434 275.386 445.575 283.386 445.512 288.767C444.82 295 445.302 310.367 445.323 317.454L445.388 372.207L445.08 636.522L445.379 712.953C445.444 725.228 445.578 737.512 445.476 749.784C445.436 754.618 441.31 758.809 436.611 759.431C433.845 759.811 431.05 758.989 428.932 757.171C426.834 755.363 425.487 752.875 425.485 750.112C425.477 738.633 425.471 727.024 425.449 715.548L425.482 636.813L425.884 407.615L425.887 327.242C425.845 313.692 426.139 296.676 425.432 283.354Z"/><path fill="white" d="M397.331 293.561C397.654 282.6 405.958 279.071 414.685 285.005C416.018 287.519 417.123 289.257 417.179 292.135C417.418 304.451 417.386 316.881 417.422 329.198L417.578 397.602L417.574 611.315L417.436 699.369C417.418 707.328 418.308 734.33 416.55 740.008C415.868 742.21 414.517 743.893 412.46 744.965C409.594 746.459 406.409 746.941 403.366 745.736C401.51 745.001 399.45 743.567 398.573 741.722C395.032 734.269 396.74 411.793 396.887 369.948C396.941 354.372 396.886 338.78 397.176 323.207C397.357 313.526 398.483 303.144 397.331 293.561Z"/><path fill="white" d="M455.617 290.746C457.991 288.565 460.368 286.654 463.843 286.803C477.627 287.392 473.912 305.399 474.069 315.366C473.659 324.552 473.921 335.563 473.96 344.834C474.259 365.956 474.381 387.08 474.326 408.204L473.995 654.483C473.983 681.315 474.356 708.847 473.385 735.556C473.141 742.275 454.054 749.22 453.818 729.316C453.326 687.888 453.834 646.531 453.943 605.11L453.678 459.99L453.709 344.842C453.806 329.054 453.836 313.147 454.141 297.365C454.191 294.79 454.757 293.119 455.617 290.746Z"/><path fill="white" d="M378.958 311.347L384.156 312.55C388.616 316.75 389.106 318.114 389.16 324.211C389.374 348.162 389.387 372.203 389.43 396.154L389.511 540.355L389.54 649.625L389.468 683.718C389.46 690.103 390.919 702.965 386.748 707.807C385.192 709.615 382.006 711.417 379.505 711.564C375.302 711.811 369.295 707.403 369.147 702.986C368.802 692.679 368.943 682.202 368.943 671.842L368.985 606.127L368.975 398.538L369.081 356.221C369.094 352.495 369.356 339.437 368.943 336.646C369.242 325.499 365.454 314.365 378.958 311.347Z"/><path fill="white" d="M483.18 338.789C487.391 337.09 489.919 336.351 494.604 337.933C496.23 338.482 498.893 341.244 499.034 342.504C500.05 351.558 499.72 363.688 499.771 372.71L499.991 448.193L500.01 596.852C500.022 622.66 500.121 648.471 499.989 674.277C499.952 681.544 499.449 685.876 491.572 688.188C484.732 687.944 480.914 686.827 480.178 679.589C479.402 671.956 479.533 664.737 479.514 657.087L479.491 624.678L479.443 520.292L479.684 402.137L479.567 364.715C479.534 358.235 479.413 351.505 479.619 345.019C479.682 343.039 481.908 340.41 483.18 338.789Z"/><path fill="white" d="M349.448 374.508C357.093 375.412 361.64 377.105 361.772 385.697C362.055 404.191 361.98 422.697 362 441.195L362.005 550.969L361.985 613.659C361.958 623.128 362.189 632.748 361.518 642.175C361.28 644.304 359.31 646.434 357.72 647.527C353.428 650.477 345.674 649.836 343.341 644.57C340.211 637.506 341.425 624.565 341.481 616.833L341.499 583.738L341.506 460.204L341.522 421.031C341.525 414.956 341.778 406.151 341.431 400.312C341.441 389.741 338.407 379.453 349.448 374.508Z"/><path fill="white" d="M318.998 437.099C337.51 432.402 334.171 449.579 334.136 461.735L334.034 497.088L334.156 550.948C334.163 559.589 334.15 568.29 334.064 577.03C334.005 583.014 331.952 587.217 325.405 588.388C320.408 589.281 317.008 585.897 314.589 581.752C314.06 569.558 314.335 556.258 314.32 543.933L314.174 482.925C314.161 474.934 314.731 453.875 314.03 446.739C314.647 441.226 314.976 440.845 318.998 437.099Z"/><path fill="white" d="M267.543 490.733L267.823 489.841C270.127 489.809 272.057 489.643 274.343 490.297C278.954 491.615 279.343 496.855 281.518 499.083C290.043 497.936 284.727 483.572 287.074 477.42C290.009 469.727 295.625 469.451 302.589 471.565L301.47 472.151C303.837 473.643 306.595 475.717 306.794 478.675C307.383 487.455 307.122 497.644 307.109 506.425L307.054 532.62C307.035 537.79 307.114 542.92 306.74 548.08C306.436 552.273 304.642 553.489 301.49 555.885L301.502 556.594C299.751 557.497 299.037 557.047 297.318 557.467C295.86 557.839 293.914 557.308 292.446 556.845C285.582 554.677 286.612 544.294 285.708 542.579L284.24 542.257C283.397 539.708 280.604 536.476 278.672 534.638C275.962 537.648 273.566 538.378 269.35 538.414C267.012 538.689 261.501 535.621 261.054 533.509C259.838 527.772 257.967 497.055 262.051 494.423C264.285 492.537 264.96 492.129 267.543 490.733Z"/><path fill="white" d="M267.543 490.733L267.823 489.841C270.127 489.809 272.057 489.643 274.343 490.297C278.954 491.615 279.343 496.855 281.518 499.083C290.043 497.936 284.727 483.572 287.074 477.42C290.009 469.727 295.625 469.451 302.589 471.565L301.47 472.151C284.136 467.874 287.035 486.08 287.033 497.176L287.136 526.714C287.175 538.726 282.39 560.14 301.49 555.885L301.502 556.594C299.751 557.497 299.037 557.047 297.318 557.467C295.86 557.839 293.914 557.308 292.446 556.845C285.582 554.677 286.612 544.294 285.708 542.579L284.24 542.257C283.397 539.708 280.604 536.476 278.672 534.638C275.962 537.648 273.566 538.378 269.35 538.414C267.012 538.689 261.501 535.621 261.054 533.509C259.838 527.772 257.967 497.055 262.051 494.423C264.285 492.537 264.96 492.129 267.543 490.733Z"/><path fill="#418BF8" d="M267.543 490.733L267.823 489.841C270.127 489.809 272.057 489.643 274.343 490.297C278.954 491.615 279.343 496.855 281.518 499.083C290.043 497.936 284.727 483.572 287.074 477.42C290.009 469.727 295.625 469.451 302.589 471.565L301.47 472.151C284.136 467.874 287.035 486.08 287.033 497.176L287.136 526.714C287.175 538.726 282.39 560.14 301.49 555.885L301.502 556.594C299.751 557.497 299.037 557.047 297.318 557.467C295.86 557.839 293.914 557.308 292.446 556.845C285.582 554.677 286.612 544.294 285.708 542.579L284.24 542.257C283.397 539.708 280.604 536.476 278.672 534.638C275.962 537.648 273.566 538.378 269.35 538.414C267.012 538.689 261.501 535.621 261.054 533.509C259.838 527.772 257.967 497.055 262.051 494.423C260.771 498.65 260.761 501.751 260.838 506.172C260.977 514.247 260.695 522.517 261.192 530.565C261.546 535.122 270.02 539.634 273.916 537.362C282.576 532.312 279.378 516.017 279.737 507.128C280.16 496.64 279.594 490.266 267.543 490.733Z"/><path fill="white" d="M243.171 501.635C256.654 502.801 257.094 521.216 245.385 525.139C230.869 524.731 230.48 504.31 243.171 501.635Z"/><path fill="#032687" d="M163.119 428.323L163.83 428.816C164.22 429.923 164.026 429.565 164.776 430.529C166.922 429.953 169.705 428.596 171.219 430.422C170.853 432.425 171.069 431.92 169.32 433.66L168.858 434.113L169.352 435.927L168.582 436.854C164.952 438.105 159.018 440.481 155.262 440.681C153.598 440.769 153.025 439.778 152.064 438.753C149.624 442.995 148.216 439.591 145.797 440.649C144.232 441.334 146.839 441.424 144.564 442.641C143.12 440.845 142.49 436.072 143.521 434.082L144.503 434.354L145.697 433.059C147.961 432.241 149.16 433.706 150.292 433.488C154.728 432.637 159.494 431.082 163.119 428.323Z"/><path fill="white" d="M207.474 512.388C210.59 509.067 212.994 509.728 217.387 509.53C220.912 509.372 226.844 508.936 227.843 513.312C227.091 516.669 221.868 517.813 218.915 517.675C212.998 517.399 211.279 518.211 207.14 513.882L207.474 512.388Z"/><path fill="#032687" d="M182.548 423.908L183.322 424.252C185.153 424.053 186.501 423.534 187.638 425.092C186.508 426.655 177.064 432.196 175.367 432.343C175.215 433.417 175.24 433.118 174.718 434.137L174.279 434.047C172.931 432.165 173.197 428.621 173.302 426.132C175.223 424.864 179.472 425.288 182.548 423.908Z"/><path fill="#418BF8" d="M642.157 684.92C644.706 686.187 648.164 690.272 647.001 693.37C645.668 693.071 644.699 692.998 643.643 692.148C642.613 690.381 641.793 686.833 642.157 684.92Z"/><path fill="#DAE5F5" d="M192.467 512.479C197.47 512.499 202.472 512.468 207.474 512.388L207.14 513.882C201.841 514.069 196.369 513.726 191.059 513.494L192.467 512.479Z"/><path fill="#418BF8" d="M183.012 513.169C186.087 512.7 189.35 512.629 192.467 512.479L191.059 513.494C188.995 513.635 185.203 513.298 183.012 513.169Z"/></svg>